<svg width="25" height="24" viewBox="0 0 25 24" fill="none" xmlns="http://www.w3.org/2000/svg">
<path d="M22.4999 6.5H15.4999V4.5H22.4999V6.5ZM24.2259 16.5C23.7839 17.797 22.1969 19.5 19.1249 19.5C16.0509 19.5 13.5609 17.771 13.5609 13.825C13.5609 9.915 15.8859 7.905 19.0269 7.905C22.1089 7.905 23.9909 9.687 24.4019 12.331C24.4799 12.837 24.5109 13.519 24.4969 14.471H16.4699C16.5999 17.682 19.9529 17.783 21.0579 16.5H24.2259ZM16.5399 12.5H21.5049C21.3999 10.953 20.3689 10.281 19.0279 10.281C17.5619 10.281 16.7509 11.049 16.5399 12.5ZM6.96588 19.488H0.499878V4.521H7.45288C12.9289 4.602 13.0329 9.965 10.1729 11.427C13.6339 12.687 13.7499 19.488 6.96588 19.488ZM3.49988 10.5H7.08388C9.59188 10.5 9.98988 7.5 6.77188 7.5H3.49988V10.5ZM6.89088 13.5H3.49988V16.516H6.84088C9.89588 16.516 9.70888 13.5 6.89088 13.5Z" fill="#2A2D38"/>
</svg>
