<svg width="299" height="297" viewBox="0 0 299 297" fill="none" xmlns="http://www.w3.org/2000/svg">
<g clip-path="url(#clip0_923_1690)">
<path d="M11.8 294.6C10.6 295.8 8.8 296.4 6.8 296.4H0V277H6.8C8.8 277 10.6 277.6 11.8 278.8C13.9 280.9 13.8 283.7 13.8 286.5C13.8 289.4 13.9 292.5 11.8 294.6ZM9.8 281C9 280.1 7.9 279.7 6.5 279.7H2.9V293.8H6.5C7.9 293.8 9 293.4 9.8 292.5C10.8 291.4 10.8 289.3 10.8 286.6C10.8 283.9 10.8 282.1 9.8 281Z" fill="#313540"/>
<path d="M20.8 296.4V277H23.7V296.4H20.8Z" fill="#313540"/>
<path d="M41.1 296.4L36.9 289L32.7 296.4H29.3L35.3 286.5L29.7 277.1H33.1L36.9 284L40.7 277.1H44.1L38.5 286.5L44.5 296.4H41.1Z" fill="#313540"/>
<path d="M50 296.4V277H52.9V296.4H50Z" fill="#313540"/>
<path d="M60.7 296.4V277H73.1V279.6H63.7V285.3H71.8V287.9H63.7V293.7H73.1V296.3H60.7V296.4Z" fill="#313540"/>
<path d="M99.8 296.4L95.7 288.2H92V296.4H89.1V277H96.6C100.3 277 102.6 279.4 102.6 282.7C102.6 285.5 100.9 287.2 98.7 287.8L103.2 296.4H99.8V296.4ZM96.4 279.7H92V285.8H96.4C98.4 285.8 99.7 284.7 99.7 282.8C99.7 280.9 98.4 279.7 96.4 279.7Z" fill="#313540"/>
<path d="M120.8 296.4L119.5 292.5H111.9L110.6 296.4H107.5L114.6 277H117L124.1 296.4H120.8ZM115.7 281.4L112.7 290H118.7L115.7 281.4Z" fill="#313540"/>
<path d="M129.4 296.4V277H132.3V296.4H129.4Z" fill="#313540"/>
<path d="M138.9 296.4V293.9L147.9 279.7H139.3V277H151.3V279.4L142.3 293.7H151.3V296.3H138.9V296.4Z" fill="#313540"/>
<path d="M174.4 288.8H170V296.4H167.1V277H174.4C178.2 277 180.6 279.5 180.6 282.9C180.6 286.3 178.2 288.8 174.4 288.8ZM174.3 279.7H170V286.1H174.2C176.2 286.1 177.6 284.9 177.6 282.9C177.7 280.9 176.3 279.7 174.3 279.7Z" fill="#313540"/>
<path d="M196.7 296.4L195.4 292.5H187.8L186.5 296.4H183.4L190.5 277H192.9L200 296.4H196.7ZM191.6 281.4L188.6 290H194.6L191.6 281.4Z" fill="#313540"/>
<path d="M211.3 296.6C209.3 296.6 207.5 295.9 206.2 294.5C204.3 292.6 204.3 290.4 204.3 286.7C204.3 283 204.3 280.8 206.2 278.9C207.5 277.6 209.3 276.8 211.3 276.8C214.9 276.8 217.5 278.9 218.2 282.8H215.2C214.7 280.8 213.4 279.5 211.3 279.5C210.2 279.5 209.1 279.9 208.4 280.7C207.4 281.7 207.2 282.8 207.2 286.7C207.2 290.6 207.4 291.7 208.4 292.7C209.1 293.4 210.1 293.9 211.3 293.9C213.4 293.9 214.8 292.5 215.2 290.6H218.2C217.5 294.5 214.8 296.6 211.3 296.6Z" fill="#313540"/>
<path d="M235.6 296.4V287.9H227.7V296.4H224.8V277H227.7V285.3H235.6V277H238.5V296.4H235.6Z" fill="#313540"/>
<path d="M246.4 296.4V277H258.8V279.6H249.4V285.3H257.5V287.9H249.4V293.7H258.8V296.3H246.4V296.4Z" fill="#313540"/>
<path d="M271.7 296.6C269.7 296.6 267.9 295.9 266.6 294.5C264.7 292.6 264.7 290.4 264.7 286.7C264.7 283 264.7 280.8 266.6 278.9C267.9 277.6 269.7 276.8 271.7 276.8C275.3 276.8 277.9 278.9 278.6 282.8H275.6C275.1 280.8 273.8 279.5 271.7 279.5C270.6 279.5 269.5 279.9 268.8 280.7C267.8 281.7 267.6 282.8 267.6 286.7C267.6 290.6 267.8 291.7 268.8 292.7C269.5 293.4 270.5 293.9 271.7 293.9C273.8 293.9 275.2 292.5 275.6 290.6H278.6C278 294.5 275.2 296.6 271.7 296.6Z" fill="#313540"/>
<path d="M296.7 294.5C295.4 295.8 293.7 296.6 291.6 296.6C289.5 296.6 287.8 295.9 286.5 294.5C284.6 292.6 284.6 290.4 284.6 286.7C284.6 283 284.6 280.8 286.5 278.9C287.8 277.6 289.5 276.8 291.6 276.8C293.7 276.8 295.4 277.5 296.7 278.9C298.6 280.8 298.6 283 298.6 286.7C298.6 290.4 298.6 292.6 296.7 294.5ZM294.4 280.7C293.7 280 292.7 279.5 291.5 279.5C290.4 279.5 289.3 280 288.6 280.7C287.6 281.7 287.5 282.8 287.5 286.7C287.5 290.6 287.7 291.7 288.6 292.7C289.3 293.4 290.3 293.9 291.5 293.9C292.6 293.9 293.7 293.4 294.4 292.7C295.4 291.7 295.5 290.6 295.5 286.7C295.5 282.8 295.4 281.7 294.4 280.7Z" fill="#313540"/>
<path d="M262.9 51.4L261.7 50.4C237.1 18.8 196.8 0 153.8 0H107.8L99.7 24.2L93.1 44L86.7 63.2L73 104.2L30.3 232.4L29.3 235.4H153.8C196.8 235.4 237.2 216.6 261.7 185C262.1 184.7 262.5 184.3 262.9 184C277.9 164.5 285.9 141.5 285.9 117.9C285.9 93.9 277.8 70.9 262.9 51.4Z" fill="#313540"/>
<path d="M105.6 218.4L53.4 216.7L73 155.9L79.4 136.7L118.7 176L105.6 218.4Z" fill="white"/>
<path d="M168.4 200.1L110.7 143.5L85.4999 118.7L99.7999 76.1L159.5 134.8L226.4 200.4L168.4 200.1Z" fill="#0F76D3"/>
<path d="M191.6 142.6L147.8 98.8H172.9C182.8 98.8 190.8 90.8 190.8 80.9C190.8 78.1 190.1 75.4 189 73H122L106.2 57.2L117.2 24.3H182.9C199.3 24.3 214.2 31 225 41.7C235.8 52.5 242.4 67.3 242.4 83.8C242.4 113.6 220.4 138.4 191.6 142.6Z" fill="white"/>
<path d="M269.2 144.3L263.9 134.8V123.4H264.5C264.9 123.4 265.3 123 265.3 122.6C265.3 122.2 264.9 121.8 264.5 121.8H254.6C254.2 121.8 253.8 122.2 253.8 122.6C253.8 123.1 254.2 123.4 254.6 123.4H255.2V134.8L241.9 158.4C241.4 159.2 241.4 160.2 241.9 160.9C242.4 161.7 243.2 162.2 244.1 162.2H258.3C262.6 162 263.6 159 266.6 153C267.4 151.3 269 147 269.5 144.5L269.2 144.3ZM265.6 144.1C263.2 144.1 262.1 143.7 260.8 143.3C259.5 142.9 258.1 142.4 255.5 142.4C254.2 142.4 253.3 142.5 252.5 142.7L256.6 135.4C256.7 135.3 256.7 135.1 256.7 135V123.4H262.3V135C262.3 135.1 262.3 135.3 262.4 135.4L267.3 144C266.7 144.1 266.2 144.1 265.6 144.1Z" fill="white"/>
<path d="M257.5 114C259.709 114 261.5 112.209 261.5 110C261.5 107.791 259.709 106 257.5 106C255.291 106 253.5 107.791 253.5 110C253.5 112.209 255.291 114 257.5 114Z" fill="white"/>
<path d="M262.5 119C263.605 119 264.5 118.105 264.5 117C264.5 115.895 263.605 115 262.5 115C261.395 115 260.5 115.895 260.5 117C260.5 118.105 261.395 119 262.5 119Z" fill="white"/>
</g>
<defs>
<clipPath id="clip0_923_1690">
<rect width="298.5" height="296.6" fill="white"/>
</clipPath>
</defs>
</svg>
