<svg width="709" height="43" viewBox="0 0 709 43" fill="none" xmlns="http://www.w3.org/2000/svg">
<path d="M15.3827 17.589C20.9338 17.589 26.7492 17.411 32.3002 17.233C34.6792 17.233 36.7939 17.055 39.1729 17.055C49.2177 16.699 59.2625 16.3429 69.3072 15.9869C81.4667 15.6309 93.3618 15.0969 105.521 14.7408C122.703 14.0288 139.885 13.4948 157.067 12.7827C161.032 12.6047 164.997 12.6047 168.962 12.4267C179.007 12.0707 189.051 11.7147 199.096 11.5366C209.141 11.1806 219.186 10.8246 229.23 10.6466C233.195 10.4686 237.16 10.2906 241.126 10.2906C256.986 9.93455 273.11 9.57853 288.97 9.22251C298.751 9.0445 308.531 8.86649 318.576 8.51047C322.541 8.51047 326.242 8.33246 330.207 8.33246C345.538 8.15445 361.134 7.97644 376.465 7.79843C391.797 7.62042 406.864 7.44241 422.196 7.2644C426.161 7.2644 430.126 7.2644 434.355 7.2644C444.4 7.2644 454.18 7.2644 464.225 7.2644C479.821 7.2644 495.152 7.2644 510.748 7.08639C515.77 7.08639 520.793 7.08639 525.815 7.08639C536.389 7.08639 546.962 7.08639 557.536 7.08639C558.328 7.08639 559.386 7.08639 560.179 7.08639C536.389 7.2644 512.334 7.44241 488.544 7.79843C478.499 7.97644 468.719 7.97644 458.674 8.15445C454.445 8.15445 449.951 8.15445 445.721 8.33246C431.183 8.51047 416.909 8.86649 402.37 9.0445C385.717 9.40052 369.064 9.57853 352.411 9.93455C349.503 9.93455 346.86 10.1126 343.952 10.1126C334.965 10.4686 326.242 10.6466 317.254 11.0026C299.279 11.5366 281.305 12.0707 263.33 12.6047C260.686 12.6047 258.043 12.7827 255.4 12.9607C246.677 13.3168 237.689 13.8508 228.966 14.2068C213.106 14.9188 197.51 15.6309 181.65 16.3429C177.421 16.5209 172.927 16.877 168.697 17.055C158.653 17.589 148.608 18.123 138.563 18.8351C125.875 19.5471 112.923 20.2592 100.235 20.9712C82.524 22.0393 64.5492 23.1073 46.8387 24.1754C42.6093 24.3534 38.3799 24.7094 33.8862 24.8874C26.2205 25.4215 18.5547 25.9555 10.889 26.4895C10.096 26.4895 9.30299 26.8455 9.30299 27.5576C9.30299 28.0916 10.096 28.6257 10.889 28.6257C13.7967 28.6257 16.4401 28.8037 19.3477 28.8037C18.8191 29.6937 18.5547 30.2277 18.5547 30.7618C18.5547 32.7199 20.9338 34.5 24.1058 34.5C46.0457 33.6099 67.7212 32.5419 89.6611 31.8298C108.693 31.2958 127.725 30.5838 146.758 30.0497C167.64 29.3377 188.787 28.6257 209.67 28.0916C216.278 27.9136 222.886 27.7356 229.495 27.3796C231.345 27.3796 233.195 27.2016 235.31 27.2016C269.145 26.6675 302.98 25.9555 336.815 25.4215C354.79 25.0654 373.029 24.7094 391.004 24.5314C397.612 24.3534 403.956 24.3534 410.565 24.1754C445.193 23.8194 479.821 23.4633 514.449 23.1073C529.252 22.9293 544.054 22.7513 558.857 22.5733C571.545 22.3953 584.233 22.3953 596.922 22.0393C607.495 21.8613 617.804 21.5052 628.378 21.3272C633.664 21.1492 638.951 21.1492 643.973 20.9712C655.868 20.4372 667.764 19.9031 679.659 19.3691C678.866 20.0812 678.866 21.1492 679.13 21.8613C679.394 22.7513 680.187 23.4633 681.509 23.8194C682.566 24.1754 684.152 24.5314 685.21 24.1754C687.853 23.4634 690.496 22.7513 692.875 22.0393C692.875 22.0393 692.875 22.0393 692.611 22.0393C692.875 22.0393 692.875 21.8613 693.14 21.8613C693.404 21.8613 693.668 21.6832 693.668 21.6832H693.404C694.726 21.3272 696.047 20.9712 697.634 20.4372C698.955 20.0812 700.541 19.5471 701.863 19.1911C703.449 18.6571 704.771 18.123 706.357 17.589C707.943 17.055 709 15.6309 709 14.3848C709 13.6728 708.736 13.1387 708.207 12.4267C707.678 11.7147 706.357 10.8246 705.035 10.6466C703.713 10.4686 702.392 10.2906 701.07 10.2906C700.806 10.2906 700.541 10.2906 700.277 10.2906C699.484 10.2906 698.427 10.2906 697.634 10.4686C695.519 10.6466 693.668 10.8246 691.554 10.8246C689.968 10.8246 688.382 11.0026 686.531 11.0026C682.038 11.1806 677.808 11.3586 673.315 11.7147C672.257 11.7147 670.936 11.8927 669.878 11.8927C670.407 11.5366 670.671 11.1806 670.671 10.8246C670.936 10.4686 670.936 10.1126 670.936 9.75654C670.936 9.57853 670.936 9.22251 671.2 9.0445C671.2 8.68848 671.2 8.33246 670.936 8.15445C670.936 8.15445 671.2 8.15445 671.2 7.97644C671.993 7.62042 672.786 7.2644 673.315 6.55236C673.843 6.01832 674.108 5.30628 674.108 4.59424C674.108 3.8822 673.843 3.34817 673.315 2.63613C673.05 2.45812 672.786 2.10209 672.522 1.92408C671.729 1.39005 670.936 1.21204 670.143 1.03403C668.557 0.67801 666.706 0.5 664.856 0.5C663.27 0.5 661.948 0.5 660.362 0.5C658.247 0.5 656.133 0.5 654.018 0.5C651.11 0.5 647.938 0.5 645.031 0.5C637.101 0.5 629.171 0.5 621.24 0.5C613.839 0.5 606.173 0.5 598.772 0.5C591.899 0.5 585.291 0.5 578.418 0.5C551.191 0.5 524.229 0.67801 497.003 0.856021C476.649 1.03403 456.295 1.21204 435.941 1.21204C426.954 1.21204 417.702 1.39005 408.714 1.56806C388.361 1.92408 368.007 2.10209 347.653 2.45812C341.837 2.45812 336.022 2.63613 330.207 2.63613C326.77 2.63613 323.598 2.81414 320.162 2.81414C300.072 3.34817 279.983 3.8822 259.893 4.41623C253.814 4.59424 247.734 4.77225 241.39 4.95026C237.953 4.95026 234.517 5.12827 231.081 5.30628C210.991 6.01832 191.166 6.73037 171.077 7.44241C160.767 7.79843 150.458 8.15445 140.149 8.68848C122.439 9.40052 104.728 10.1126 87.2821 11.0026C71.9506 11.7147 56.6191 12.2487 41.2876 12.7827C38.9086 12.9607 36.5296 12.9607 33.8862 13.1387C29.9212 13.3168 25.9561 13.3168 21.9911 13.4948C18.5547 14.2068 14.854 14.2068 11.4177 14.2068C11.1533 13.4948 10.096 12.9607 9.30299 13.1387C6.92396 13.1387 4.80928 13.3168 2.43025 13.4948C1.37291 13.6728 0.315568 14.0288 0.0512322 14.7408C-0.213104 15.6309 0.579904 16.5209 1.63725 16.699C2.69459 16.877 3.75193 17.055 4.80928 17.233C5.86662 17.411 6.65963 17.411 7.71697 17.411C10.3603 17.589 12.7394 17.589 15.3827 17.589ZM633.929 11.8927C637.101 11.8927 640.537 11.8927 643.709 11.8927C643.973 12.4267 644.502 12.7827 645.031 13.1387C643.709 13.1387 642.387 13.3168 641.33 13.3168C638.951 13.3168 636.572 13.4948 634.193 13.4948C623.619 13.6728 613.31 14.0288 602.737 14.2068C597.979 14.3848 593.221 14.5628 588.463 14.5628C581.061 14.5628 573.396 14.7408 565.994 14.7408C548.812 14.9188 531.895 15.0969 514.713 15.2749C481.407 15.6309 448.365 15.9869 415.059 16.3429C391.268 16.5209 367.478 17.055 343.688 17.589C308.003 18.301 272.053 18.8351 236.367 19.5471C229.23 19.7251 222.093 19.9031 214.956 20.2592C194.602 20.9712 174.249 21.5052 153.895 22.2173C134.07 22.9293 113.98 23.4634 94.1548 24.1754C92.3044 24.1754 90.4541 24.3534 88.6037 24.3534C93.8905 23.9974 99.4415 23.8194 104.728 23.4633C123.496 22.5733 142.264 21.5052 161.032 20.6152C167.64 20.2592 174.249 19.9031 180.593 19.5471C184.029 19.3691 187.465 19.1911 190.637 19.1911C210.463 18.4791 230.023 17.589 249.584 16.877C253.285 16.699 257.25 16.5209 260.951 16.3429C266.502 16.1649 272.053 15.9869 277.34 15.9869C297.429 15.4529 317.519 14.9188 337.608 14.3848C342.102 14.2068 346.596 14.2068 350.825 14.0288C351.882 14.0288 353.204 14.0288 354.261 14.0288C357.433 14.0288 360.605 14.0288 363.513 13.8508C383.603 13.4948 403.956 13.3168 424.046 12.9607C433.298 12.7827 442.549 12.6047 451.801 12.6047C481.671 12.4267 511.805 12.2487 541.675 12.0707C572.867 12.0707 603.53 11.8927 633.929 11.8927Z" fill="#E2E8ED"/>
<path d="M54.9837 42.5C55.7828 42.5 56.4306 42.0523 56.4306 41.5C56.4306 40.9477 55.7828 40.5 54.9837 40.5C54.1846 40.5 53.5367 40.9477 53.5367 41.5C53.5367 42.0523 54.1846 42.5 54.9837 42.5Z" fill="#E2E8ED"/>
</svg>
