<svg width="257" height="236" viewBox="0 0 257 236" fill="none" xmlns="http://www.w3.org/2000/svg">
<path d="M233.9 51.4L232.7 50.4C208.1 18.8 167.8 0 124.8 0H78.8L70.7 24.2L64.1 44L57.7 63.2L44 104.2L1.29999 232.4L0.299988 235.4H124.8C167.8 235.4 208.2 216.6 232.7 185C233.1 184.7 233.5 184.3 233.9 184C248.9 164.5 256.9 141.5 256.9 117.9C256.9 93.9 248.8 70.9 233.9 51.4Z" fill="#313540"/>
<path d="M76.6 218.4L24.4 216.7L44 155.9L50.4 136.7L89.7 176L76.6 218.4Z" fill="white"/>
<path d="M139.4 200.1L81.6999 143.5L56.4999 118.7L70.7999 76.1L130.5 134.8L197.4 200.4L139.4 200.1Z" fill="#0F76D3"/>
<path d="M162.6 142.6L118.8 98.8H143.9C153.8 98.8 161.8 90.8 161.8 80.9C161.8 78.1 161.1 75.4 160 73H93L77.2 57.2L88.2 24.3H153.9C170.3 24.3 185.2 31 196 41.7C206.8 52.5 213.4 67.3 213.4 83.8C213.4 113.6 191.4 138.4 162.6 142.6Z" fill="white"/>
<path d="M240.2 144.3L234.9 134.8V123.4H235.5C235.9 123.4 236.3 123 236.3 122.6C236.3 122.2 235.9 121.8 235.5 121.8H225.6C225.2 121.8 224.8 122.2 224.8 122.6C224.8 123.1 225.2 123.4 225.6 123.4H226.2V134.8L212.9 158.4C212.4 159.2 212.4 160.2 212.9 160.9C213.4 161.7 214.2 162.2 215.1 162.2H229.3C233.6 162 234.6 159 237.6 153C238.4 151.3 240 147 240.5 144.5L240.2 144.3ZM236.6 144.1C234.2 144.1 233.1 143.7 231.8 143.3C230.5 142.9 229.1 142.4 226.5 142.4C225.2 142.4 224.3 142.5 223.5 142.7L227.6 135.4C227.7 135.3 227.7 135.1 227.7 135V123.4H233.3V135C233.3 135.1 233.3 135.3 233.4 135.4L238.3 144C237.7 144.1 237.2 144.1 236.6 144.1Z" fill="white"/>
<path d="M228.5 114C230.709 114 232.5 112.209 232.5 110C232.5 107.791 230.709 106 228.5 106C226.291 106 224.5 107.791 224.5 110C224.5 112.209 226.291 114 228.5 114Z" fill="white"/>
<path d="M233.5 119C234.605 119 235.5 118.105 235.5 117C235.5 115.895 234.605 115 233.5 115C232.395 115 231.5 115.895 231.5 117C231.5 118.105 232.395 119 233.5 119Z" fill="white"/>
</svg>
