<?xml version="1.0" standalone="no"?>
<!DOCTYPE svg PUBLIC "-//W3C//DTD SVG 20010904//EN"
 "http://www.w3.org/TR/2001/REC-SVG-20010904/DTD/svg10.dtd">
<svg version="1.0" xmlns="http://www.w3.org/2000/svg"
 width="1028.000000pt" height="1028.000000pt" viewBox="0 0 1028.000000 1028.000000"
 preserveAspectRatio="xMidYMid meet">
<metadata>
Created by potrace 1.14, written by Peter Selinger 2001-2017
</metadata>
<g transform="translate(0.000000,1028.000000) scale(0.100000,-0.100000)"
fill="#000000" stroke="none">
<path d="M3132 9778 c-32 -91 -424 -1267 -2042 -6123 l-1067 -3200 2536 -3
c1740 -2 2597 0 2731 8 647 36 1277 173 1850 402 205 82 541 246 722 352 552
324 992 701 1398 1196 25 30 56 65 70 77 14 12 63 73 108 137 435 610 700
1269 796 1986 106 784 -26 1609 -377 2355 -148 316 -381 692 -522 845 -33 36
-93 104 -133 152 -440 530 -995 965 -1642 1289 -605 302 -1241 488 -1951 569
-276 32 -593 40 -1551 40 l-896 0 -30 -82z m3193 -888 c592 -49 1120 -294
1535 -711 297 -299 513 -688 619 -1114 75 -303 79 -738 10 -1065 -55 -257
-193 -583 -341 -805 -310 -464 -760 -801 -1293 -968 -80 -25 -343 -82 -351
-75 -35 30 -1754 1754 -1754 1760 0 4 249 8 553 8 528 0 557 1 633 21 127 33
226 91 319 184 194 195 257 464 169 727 l-26 78 -1336 0 -1337 0 -322 322
-322 322 215 645 c119 355 220 654 225 664 9 16 83 17 1347 17 791 0 1386 -4
1457 -10z m-2180 -3361 c1401 -1376 3366 -3304 3618 -3548 70 -68 127 -128
127 -133 0 -4 -521 -5 -1157 -2 l-1158 6 -190 187 c-104 103 -543 533 -975
956 -432 424 -1048 1029 -1370 1345 -322 317 -630 619 -685 672 l-100 96 269
804 c148 441 278 827 289 857 l19 53 212 -209 c116 -115 612 -603 1101 -1084z
m5077 75 c35 -18 65 -58 80 -105 33 -112 -89 -234 -201 -201 -80 24 -123 82
-123 163 0 127 127 201 244 143z m178 -364 c44 -44 29 -115 -30 -140 -40 -16
-85 1 -106 42 -30 58 8 118 76 118 26 0 47 -7 60 -20z m45 -260 c21 -24 14
-47 -20 -60 l-25 -10 0 -216 0 -217 62 -111 c34 -61 81 -146 104 -189 24 -44
47 -84 53 -90 14 -19 -58 -239 -129 -389 -78 -166 -140 -261 -193 -296 l-41
-27 -348 -3 -349 -3 -29 30 c-60 59 -58 62 216 549 136 240 257 456 270 479
23 40 24 48 24 267 0 218 -1 226 -20 226 -10 0 -24 9 -30 20 -8 15 -6 24 10
40 19 19 33 20 223 20 190 0 205 -1 222 -20z m-5879 -2252 c-26 -89 -84 -279
-201 -653 -29 -93 -83 -269 -120 -390 -37 -121 -92 -298 -123 -394 l-55 -174
-196 6 c-108 4 -576 19 -1041 33 -465 15 -849 30 -854 34 -4 5 15 77 43 162
58 177 480 1484 577 1788 82 257 288 882 361 1098 l56 164 791 -791 790 -790
-28 -93z"/>
<path d="M9117 4914 c-4 -4 -7 -113 -7 -243 l-1 -236 -74 -130 -75 -130 118
-7 c85 -5 139 -13 197 -33 71 -23 245 -46 245 -33 0 3 -42 77 -92 164 l-93
159 -5 245 -5 245 -101 3 c-55 1 -103 0 -107 -4z"/>
</g>
</svg>
